<?xml version="1.0" standalone="no"?>
<!DOCTYPE svg PUBLIC "-//W3C//DTD SVG 1.1//EN" "http://www.w3.org/Graphics/SVG/1.1/DTD/svg11.dtd" >
<svg xmlns="http://www.w3.org/2000/svg">
<metadata>
Created by FontPrep 20130207 at Thu Apr  9 19:54:11 2015
 By Mikhail
251 Dutch Design: Albert-Jan Pool, 1995. Published by FontShop International FontFont release 15
</metadata>
<defs>
<font id="da81e531c9f55934d3a2dcd621e6acd9" horiz-adv-x='1024' >
  <font-face 
    font-family="DINBek-Regular"
    font-weight="400"
    font-stretch="normal"
    units-per-em="2048"
    panose-1="2 0 5 3 4 0 0 2 0 3"
    ascent="1638"
    descent="-410"
    x-height="1008"
    cap-height="1458"
    bbox="-66 -463 2284 2017"
    underline-thickness="104"
    underline-position="-182"
    unicode-range="U+0001-2122"
  />
<missing-glyph horiz-adv-x="2048" 
 />
    <glyph glyph-name=".notdef" horiz-adv-x="2048" 
 />
    <glyph glyph-name=".null" horiz-adv-x="0" 
 />
    <glyph glyph-name="nonmarkingreturn" horiz-adv-x="681" 
 />
    <glyph glyph-name="Eth" horiz-adv-x="1406" 
d="M1083.5 1022.5q-12.5 84.5 -66.5 158.5q-103 140 -304 140h-316v-524h330v-121h-330v-539h316q217 0 319 152q42 64 53 141t11 293q0 215 -12.5 299.5zM1236.5 391q-14.5 -90 -78.5 -179q-63 -89 -170 -150.5t-259 -61.5h-489v676h-160v121h160v661h501q330 0 417 -193
t90 -305t3 -296q0 -183 -14.5 -273z" />
    <glyph glyph-name="eth" horiz-adv-x="1085" 
d="M725 809q-74 74 -181 74t-179 -72t-77 -170.5t-5 -162.5t12.5 -147t76.5 -147t172 -65q108 1 172 65t76.5 147t12.5 181q0 223 -80 297zM952 476q0 -92 -22.5 -195t-100.5 -181q-108 -112 -286.5 -112t-286.5 112q-78 78 -99.5 180.5t-21.5 218.5t22.5 219t98.5 179
q123 126 246 115t157 -27l-118 203h-238v106h180l-96 168h154l96 -168h168v-106h-111l129 -227q82 -144 100.5 -215.5t23.5 -124.5t5 -145z" />
    <glyph glyph-name="Lslash" horiz-adv-x="1191" 
d="M1130 0h-901v592l-149 -94v137l149 94v729h158v-631l315 201v-135l-315 -201v-553h743v-139z" />
    <glyph glyph-name="lslash" horiz-adv-x="645" 
d="M463 0q-131 0 -194.5 77t-63.5 191v432l-129 -79v127l129 79v631h147v-540l166 102v-127l-166 -102v-517q0 -74 29 -110.5t106 -36.5h82v-127h-106z" />
    <glyph glyph-name="Scaron" horiz-adv-x="1204" 
d="M608 127q142 0 234 71q92 72 92 196t-70 186q-34 31 -72 44t-118 25l-170 27q-174 28 -276 118t-103 271q0 181 127 294t340 111q139 0 239 -38t195 -121l-100 -101q-68 62 -146 94t-210 32t-212 -74t-80 -191t66 -174q67 -55 197 -80l159 -24q102 -14 162 -38t105 -65
q123 -105 123 -294t-140 -299q-140 -111 -364 -109q-164 0 -281 45t-219 147l107 107q90 -90 182 -125q91 -35 233 -35zM918 1913l-256 -314h-140l-256 314h142l184 -215l184 215h142z" />
    <glyph glyph-name="scaron" horiz-adv-x="1015" 
d="M614 567q147 -13 222 -77t75 -200q0 -137 -111 -220q-111 -82 -298 -82q-130 0 -230 32t-184 113l98 98q111 -118 314 -116q124 0 196 44t72 122q0 79 -40 115t-128 44l-166 15q-301 25 -301 270q0 135 102 214t269 81q229 0 362 -109l-96 -96q-103 80 -268 80
q-111 0 -168 -44q-58 -44 -58 -116q0 -73 40 -109t137 -44zM831 1530l-256 -313h-139l-256 313h142l184 -215l184 215h141z" />
    <glyph glyph-name="Yacute" horiz-adv-x="1054" 
d="M606 0h-155v602l-435 856h168l344 -698l340 698h168l-430 -856v-602zM782 1913l-221 -314h-135l180 314h176z" />
    <glyph glyph-name="yacute" horiz-adv-x="913" 
d="M166 -432h-64v131h45q78 0 110 28t56 97l72 196l-362 988h159l277 -809l274 809h160l-459 -1252q-68 -188 -268 -188zM715 1530l-221 -313h-136l181 313h176z" />
    <glyph glyph-name="Thorn" horiz-adv-x="1314" 
d="M1049 735.5q0 145.5 -86 217t-224 71.5h-372v-578h372q137 0 223.5 72t86.5 217.5zM1080 423.5q-124 -116.5 -326 -116.5h-387v-307h-156v1458h156v-293h387q201 0 325.5 -116.5t124.5 -312.5t-124 -312.5z" />
    <glyph glyph-name="thorn" horiz-adv-x="1118" 
d="M838 504q0 74 -8.5 143.5t-35 122.5t-76.5 86t-132 33t-132.5 -33t-77 -86t-35.5 -122.5t-9 -143.5t9 -143.5t35.5 -123t77 -86t132.5 -32.5t132 32.5t76.5 86t35 123t8.5 143.5zM939.5 178q-45.5 -190 -323.5 -190q-84 0 -153.5 26.5t-130.5 104.5v-570h-148v1909h148
v-567q61 78 130.5 103.5t150.5 25.5q227 0 291.5 -134.5t72.5 -228.5t8 -191.5t-45.5 -287.5z" />
    <glyph glyph-name="Zcaron" horiz-adv-x="1138" 
d="M1022 0h-905v147l729 1172h-701v139h877v-131l-735 -1188h735v-139zM907 1913l-256 -314h-139l-256 314h141l185 -215l184 215h141z" />
    <glyph glyph-name="zcaron" horiz-adv-x="940" 
d="M834 0h-732v127l562 750h-531v131h701v-125l-564 -752h564v-131zM811 1530l-256 -313h-139l-256 313h141l184 -215l185 215h141z" />
    <glyph glyph-name="onehalf" horiz-adv-x="1617" 
d="M258 584v743l-170 -149v135l170 145h117v-874h-117zM453 0h-123l682 1458h123zM1016 0v106l338 414q47 58 47 119t-35 99t-93 38q-138 0 -138 -137h-119q0 111 70.5 177.5t181 66.5t181.5 -65.5t71 -178.5q0 -57 -19.5 -98t-60.5 -90l-281 -345h361v-106h-504z" />
    <glyph glyph-name="onequarter" horiz-adv-x="1591" 
d="M375 584h-117v743l-170 -149v135l170 145h117v-874zM1159 1458l-682 -1458h-123l682 1458h123zM1509 131h-96v-131h-115v131h-352v109l309 634h127l-307 -634h223v215h115v-215h96v-109z" />
    <glyph glyph-name="onesuperior" horiz-adv-x="534" 
d="M375 584h-117v743l-170 -149v135l170 145h117v-874z" />
    <glyph glyph-name="threequarters" horiz-adv-x="1683" 
d="M631 829q0 -119 -74.5 -187.5t-189.5 -68.5q-178 0 -222.5 90.5t-46.5 153.5h119q4 -72 48.5 -104.5t104.5 -32.5t102 39t42 109t-38 110.5t-116 40.5h-18v102h18q140 0 140 140q0 70 -40 104.5t-97 34.5t-94.5 -35t-41.5 -94h-116q6 111 77.5 173t179.5 62t178 -66.5
t70 -176.5q0 -137 -110 -189q125 -53 125 -205zM584 0h-123l684 1458h123zM1505 131v-131h-114v131h-353v109l310 634h127l-310 -634h226v215h114v-215h97v-109h-97z" />
    <glyph glyph-name="threesuperior" horiz-adv-x="729" 
d="M631 829q0 -119 -74.5 -187.5t-189.5 -68.5q-178 0 -222.5 90.5t-46.5 153.5h119q4 -72 48.5 -104.5t104.5 -32.5t102 39t42 109t-38 110.5t-116 40.5h-18v102h18q140 0 140 140q0 70 -40 104.5t-97 34.5t-94.5 -35t-41.5 -94h-116q6 111 77.5 173t179.5 62t178 -66.5
t70 -176.5q0 -137 -110 -189q125 -53 125 -205z" />
    <glyph glyph-name="twosuperior" horiz-adv-x="700" 
d="M98 584v106l338 414q47 58 47 119t-34.5 99t-92.5 38t-98.5 -31t-40.5 -106h-119q0 111 71 177t181.5 66t181 -65.5t70.5 -177.5q0 -57 -19.5 -98.5t-60.5 -90.5l-282 -344h362v-106h-504z" />
    <glyph glyph-name="brokenbar" horiz-adv-x="686" 
d="M408 -152h-148v717h148v-717zM408 893h-148v717h148v-717z" />
    <glyph glyph-name="minus" 
d="M963 483h-857v138h857v-138z" />
    <glyph glyph-name="multiply" 
d="M936 244l-92 -92l-309 309l-310 -309l-92 92l309 309l-309 309l92 92l310 -311l309 311l92 -92l-311 -309z" />
    <glyph glyph-name="space" unicode=" " horiz-adv-x="509" 
 />
    <glyph glyph-name="exclam" unicode="!" horiz-adv-x="647" 
d="M442 0h-176v172h176v-172zM440 1458l-22 -1048h-127l-21 1048h170z" />
    <glyph glyph-name="quotedbl" unicode="&#x22;" horiz-adv-x="866" 
d="M342 1110h-162v348h162v-348zM686 1110h-162v348h162v-348z" />
    <glyph glyph-name="numbersign" unicode="#" horiz-adv-x="1337" 
d="M885 885h-326l-47 -289h326zM1233 885h-197l-47 -289h182v-131h-202l-74 -465h-152l74 465h-328l-71 -465h-152l74 465h-182v131h204l48 289h-189v135h207l70 440h153l-71 -440h325l70 440h149l-69 -440h178v-135z" />
    <glyph glyph-name="dollar" unicode="$" horiz-adv-x="1220" 
d="M950 397q0 119 -61 173q-61 55 -115.5 65t-120.5 20v-526q139 10 218 79.5t79 188.5zM279 1067q0 -113 65 -170q75 -61 201 -80v516q-129 -10 -197.5 -81.5t-68.5 -184.5zM981 690q125 -108 125 -286q0 -177 -121 -288.5t-326 -123.5v-225h-122v221q-145 6 -250 51
t-201 141l107 107q82 -82 164.5 -118t187.5 -40v543l-41 6q-155 15 -266 108q-113 100 -113 274t109.5 283t302.5 125v183h122v-183q119 -6 207 -44t174 -113l-100 -101q-59 53 -125.5 85t-161.5 38v-530l64 -8q102 -16 159.5 -40t104.5 -65z" />
    <glyph glyph-name="percent" unicode="%" horiz-adv-x="1705" 
d="M250 985q0 -176 159.5 -176t159.5 176v207q0 178 -159 178q-86 0 -123 -47t-37 -131v-207zM686 981q0 -125 -79 -199.5t-199 -74.5t-197.5 74.5t-77.5 199.5v215q0 127 78 202t198 75t198.5 -75t78.5 -202v-215zM573 0h-122l684 1458h122zM1298 88q160 0 160 178v207
q0 178 -160 178q-86 0 -122.5 -47t-36.5 -131v-207q0 -84 36.5 -131t122.5 -47zM1575 262q0 -127 -79 -201.5t-199 -74.5t-197.5 74.5t-77.5 201.5v215q0 127 78 202t198 75t198.5 -75t78.5 -202v-215z" />
    <glyph glyph-name="ampersand" unicode="&#x26;" horiz-adv-x="1513" 
d="M394 206q85 -81 222 -81q82 0 166 28.5t179 112.5l-402 484q-130 -91 -190 -158t-60 -186t85 -200zM809 1168q0 68 -49 118.5t-124 50.5t-121 -48.5t-46 -110.5t29.5 -112t101.5 -138q10 6 23.5 14t26.5 18t46 34q33 22 73 64t40 110zM640 -12q-233 0 -357.5 116.5
t-124.5 314.5t128 294t187 135q-78 95 -118 161.5t-40 144.5q0 143 92 229.5t228 86.5t227.5 -87t91.5 -229t-161 -251q-21 -12 -39 -25t-37 -25.5t-33 -23.5l373 -448q46 70 64 148t18 186h147q-4 -291 -135 -447l223 -268h-194l-131 160q-85 -74 -183 -123t-226 -49z" />
    <glyph glyph-name="quotesingle" unicode="'" horiz-adv-x="522" 
d="M342 1110h-162v348h162v-348z" />
    <glyph glyph-name="parenleft" unicode="(" horiz-adv-x="610" 
d="M188 195v1069q0 132 36 197t71 103t84 87l100 -101q-35 -35 -89 -91t-54 -208v-1044q0 -152 54 -208t89 -91l-100 -101q-49 49 -84 87t-71 103t-36 198z" />
    <glyph glyph-name="parenright" unicode=")" horiz-adv-x="610" 
d="M420 195q0 -53 -6 -106.5t-35 -105t-63.5 -89t-84.5 -87.5l-104 105l61 62q62 61 71 122.5t9 110.5v1044q0 108 -24 155q-24 48 -53 76.5t-64 63.5l104 105q49 -49 84 -87t64 -89.5t35 -104.5t6 -106v-1069z" />
    <glyph glyph-name="asterisk" unicode="*" horiz-adv-x="970" 
d="M834 967l-58 -101l-239 146l8 -281h-119l8 281l-237 -146l-60 101l246 133l-246 135l60 98l237 -145l-8 280h119l-8 -280l239 145l58 -98l-246 -135z" />
    <glyph glyph-name="plus" unicode="+" 
d="M963 479h-359v-360h-137v360h-361v137h361v357h137v-357h359v-137z" />
    <glyph glyph-name="comma" unicode="," horiz-adv-x="540" 
d="M180 180h180v-313l-180 -162v475z" />
    <glyph glyph-name="hyphen" unicode="-" horiz-adv-x="872" 
d="M717 483h-561v138h561v-138z" />
    <glyph glyph-name="period" unicode="." horiz-adv-x="552" 
d="M373 0h-193v193h193v-193z" />
    <glyph glyph-name="slash" unicode="/" horiz-adv-x="727" 
d="M729 1610l-584 -1762h-145l584 1762h145z" />
    <glyph glyph-name="zero" unicode="0" 
d="M786 1061q0 121 -64.5 199.5t-187 78.5t-187 -78.5t-64.5 -199.5v-664q0 -121 64.5 -199.5t187 -78.5t187 78.5t64.5 199.5v664zM934 389q0 -178 -113 -289.5t-286.5 -111.5t-286.5 111.5t-113 289.5v680q0 179 113 290t286.5 111t286.5 -111t113 -290v-680z" />
    <glyph glyph-name="one" unicode="1" 
d="M676 0h-148v1294l-272 -239v168l272 235h148v-1458z" />
    <glyph glyph-name="two" unicode="2" 
d="M139 0v131l576 731q82 106 82 220t-66.5 185.5t-187.5 71.5q-174 0 -214 -96t-40 -168h-148q0 174 110.5 284.5t290.5 110.5t291 -105.5t111 -287.5q0 -88 -28.5 -152.5t-88.5 -142.5l-510 -651h627v-131h-805z" />
    <glyph glyph-name="three" unicode="3" 
d="M508 811q260 0 260 268q0 127 -73.5 194.5t-185.5 67.5t-179.5 -65.5t-77.5 -177.5h-148q12 172 127 273.5t288 101.5t284.5 -109t111.5 -287q0 -233 -196 -323q223 -85 223 -357q0 -192 -120 -301.5t-308 -109.5q-282 0 -353 143t-75 242h147q7 -124 86.5 -189
t196.5 -65t198 73.5t81 207.5t-69 209t-218 75h-31v129h31z" />
    <glyph glyph-name="four" unicode="4" 
d="M987 231h-178v-231h-145v231h-582v134l526 1093h158l-526 -1093h424v413h145v-413h178v-134z" />
    <glyph glyph-name="five" unicode="5" 
d="M799 496q0 340 -246 340q-96 0 -157.5 -39t-84.5 -105h-133v766h737v-131h-604v-463q92 101 257 101q164 0 257 -93q103 -98 112 -219t9 -202t-20 -180t-84 -163t-134.5 -93t-167.5 -29q-190 0 -294 104q-88 92 -103 254h148q29 -227 246 -227q115 0 184 69t73.5 162.5
t4.5 147.5z" />
    <glyph glyph-name="six" unicode="6" 
d="M795 414q0 200 -97.5 247.5t-160.5 47.5q-117 0 -186.5 -80t-69.5 -215t69.5 -215t186 -80t187.5 80t71 215zM942 419q0 -91 -28.5 -171t-81 -137.5t-127 -90t-214.5 -32.5t-249 115t-109 305q0 147 92 327l359 723h151l-325 -655q68 31 153.5 31t155 -31t119 -86
t77 -131t27.5 -167z" />
    <glyph glyph-name="seven" unicode="7" 
d="M301 1327v-229h-145v360h809v-131l-506 -1327h-156l506 1327h-508z" />
    <glyph glyph-name="eight" unicode="8" 
d="M817 403.5q0 61.5 -21.5 112.5t-59.5 90t-90 60.5t-111.5 21.5t-111.5 -21.5t-90 -60.5t-59.5 -90t-21.5 -112.5t21.5 -112.5t59.5 -90t90 -60.5t111.5 -21.5t111.5 21.5t90 60.5t59.5 90t21.5 112.5zM788 1076q0 116 -70.5 189.5t-183 73.5t-183 -73.5t-70.5 -189.5
t70.5 -187.5t183 -71.5t183 71.5t70.5 187.5zM936 1079q0 -216 -188 -323q92 -53 154.5 -139.5t62.5 -196.5t-33 -186t-91.5 -131.5t-137 -85t-216.5 -29.5t-260.5 116.5t-122.5 296.5q0 227 220 355q-191 109 -191 323q0 172 113.5 281.5t287.5 109.5t288 -108.5
t114 -282.5z" />
    <glyph glyph-name="nine" unicode="9" 
d="M788 1044.5q0 135.5 -70.5 215t-187 79.5t-186.5 -79.5t-70 -211.5t69 -215t186 -83q118 0 188.5 79.5t70.5 215zM127 1042q0 186 110.5 307t295.5 121t294 -115t109 -284q0 -168 -92 -348l-359 -723h-153l327 655q-69 -31 -155 -31q-172 1 -274.5 116.5t-102.5 301.5z
" />
    <glyph glyph-name="colon" unicode=":" horiz-adv-x="608" 
d="M428 0h-192v193h192v-193zM428 616h-192v193h192v-193z" />
    <glyph glyph-name="semicolon" unicode=";" horiz-adv-x="608" 
d="M240 180h180v-313l-180 -162v475zM428 616h-192v193h192v-193z" />
    <glyph glyph-name="less" unicode="&#x3c;" horiz-adv-x="2103" 
d="M1991 479h-1616l747 -745h-192l-817 817l817 817h192l-747 -745h1616v-144z" />
    <glyph glyph-name="equal" unicode="=" 
d="M963 309h-857v135h857v-135zM963 655h-857v138h857v-138z" />
    <glyph glyph-name="greater" unicode="&#x3e;" horiz-adv-x="2103" 
d="M113 479v144h1616l-748 745h193l817 -817l-817 -817h-193l748 745h-1616z" />
    <glyph glyph-name="question" unicode="?" horiz-adv-x="1017" 
d="M465 0v172h176v-172h-176zM924 1103q0 -77 -26 -135.5t-67 -117.5l-167 -242q-37 -60 -37 -119v-79h-148v82q0 101 64 192l166 240q29 43 48 81.5t19 92.5q0 104 -65.5 172.5t-171.5 68.5t-171 -71t-65 -172h-147q0 159 109.5 266.5t274.5 107.5t274.5 -105.5
t109.5 -261.5z" />
    <glyph glyph-name="at" unicode="@" horiz-adv-x="1460" 
d="M1169 487.5q0 71.5 -8 139t-34.5 120t-76 84t-129 31.5t-129 -31.5t-76 -84t-34.5 -120t-8 -139t8 -139t34.5 -120t76 -84t129 -31.5t129 31.5t76 84t34.5 120t8 139zM1171 113q-98 -127 -276 -127q-177 0 -277 125q-51 66 -70.5 151.5t-19.5 222.5t18.5 225.5
t64.5 149.5q97 129 275.5 129t282.5 -129v160q0 82 -17 134t-61 97q-82 84 -229 84h-266q-141 0 -223 -82q-47 -47 -64.5 -97t-17.5 -136v-690q0 -99 23.5 -146.5t93.5 -101.5l-101 -100q-94 70 -127 140t-33 206v688q0 213 114 329t317 115h303q201 0 317 -116t115 -328
v-1018l-142 2v113z" />
    <glyph glyph-name="A" unicode="A" horiz-adv-x="1251" 
d="M899 465l-270 770l-275 -770h545zM1227 0h-166l-117 330h-637l-117 -330h-165l536 1458h131z" />
    <glyph glyph-name="B" unicode="B" horiz-adv-x="1368" 
d="M1057 407.5q0 122.5 -79 194.5t-214 72h-397v-535h397q135 0 214 73t79 195.5zM1034 1096q0 95 -80 159t-206 64h-381v-506h381q198 0 242 94t44 189zM1212 420q0 -209 -117.5 -314.5t-316.5 -105.5h-567v1458h549q195 0 312.5 -105t117.5 -284q0 -117 -61.5 -201
t-153.5 -118q104 -39 170.5 -127.5t66.5 -202.5z" />
    <glyph glyph-name="C" unicode="C" horiz-adv-x="1304" 
d="M156 652.5q0 193.5 4 365.5t123 291q161 161 370 161t345.5 -114t172.5 -320h-159q-29 135 -119 215t-236 80t-243 -102q-67 -67 -85 -163.5t-18 -336.5t18 -336.5t85 -163.5q98 -102 243 -102q146 0 238 80t121 215h155q-36 -206 -173 -320t-344 -114q-208 0 -361 151
q-94 94 -115.5 207t-21.5 306.5z" />
    <glyph glyph-name="D" unicode="D" horiz-adv-x="1378" 
d="M1053 1036.5q-14 105.5 -76 170.5q-109 112 -293 112h-317v-1180h317q184 0 281 102t99.5 269.5t2.5 294t-14 232zM1193 319.5q-30 -195.5 -199 -257.5t-283 -62h-500v1458h500q235 0 371 -137t138.5 -318.5t2.5 -334.5t-30 -348.5z" />
    <glyph glyph-name="E" unicode="E" horiz-adv-x="1228" 
d="M1116 0h-905v1458h905v-139h-749v-514h639v-139h-639v-527h749v-139z" />
    <glyph glyph-name="F" unicode="F" horiz-adv-x="1187" 
d="M1116 1319h-749v-537h639v-139h-639v-643h-156v1458h905v-139z" />
    <glyph glyph-name="G" unicode="G" horiz-adv-x="1331" 
d="M1180 532q0 -127 -29 -215.5t-101 -166.5q-151 -162 -378 -162q-226 0 -379 151q-94 94 -115.5 207t-21.5 306.5t2 280.5t21.5 189.5t113.5 196.5q152 151 366 151t348 -119.5t169 -316.5h-156q-31 139 -124 218t-238 79t-244 -104q-67 -67 -85 -162.5t-18 -335.5
t18 -336.5t85 -163.5q98 -102 262 -102t266 125q82 97 82 264v111h-358v137h514v-232z" />
    <glyph glyph-name="H" unicode="H" horiz-adv-x="1425" 
d="M1214 0h-155v666h-692v-666h-156v1458h156v-653h692v653h155v-1458z" />
    <glyph glyph-name="I" unicode="I" horiz-adv-x="577" 
d="M367 0h-156v1458h156v-1458z" />
    <glyph glyph-name="J" unicode="J" horiz-adv-x="1026" 
d="M836 442q0 -208 -127 -331t-329 -123t-333 131l105 104q73 -73 128.5 -84.5t100.5 -11.5q143 0 221 87t78 249v995h156v-1016z" />
    <glyph glyph-name="K" unicode="K" horiz-adv-x="1331" 
d="M367 0h-156v1458h156v-837l680 837h190l-459 -563l525 -895h-185l-444 776l-307 -368v-408z" />
    <glyph glyph-name="L" unicode="L" horiz-adv-x="1173" 
d="M1112 0h-901v1458h156v-1319h745v-139z" />
    <glyph glyph-name="M" unicode="M" horiz-adv-x="1671" 
d="M1460 0h-155v1108l-400 -879h-133l-405 879v-1108h-156v1458h156l475 -1034l463 1034h155v-1458z" />
    <glyph glyph-name="N" unicode="N" horiz-adv-x="1499" 
d="M1288 0h-147l-774 1169v-1169h-156v1458h147l775 -1165v1165h155v-1458z" />
    <glyph glyph-name="O" unicode="O" horiz-adv-x="1331" 
d="M414 1227q-67 -67 -85 -162.5t-18 -335.5t18 -335.5t75 -153.5q111 -113 261.5 -113t252.5 104q66 66 84 162t18 336t-18 335t-74 153q-110 114 -262 114t-252 -104zM156 652.5q0 193.5 2 280.5t21.5 189.5t113.5 196.5q152 152 373 151.5t372 -151.5q94 -94 116 -209.5
t22 -306.5t-5 -364.5t-123 -290.5q-162 -160 -382 -160q-221 0 -373 151q-94 94 -115.5 207t-21.5 306.5z" />
    <glyph glyph-name="P" unicode="P" horiz-adv-x="1290" 
d="M1049 1030.5q0 145.5 -86 217t-224 71.5h-372v-580h372q137 0 223.5 73t86.5 218.5zM1078.5 716q-125.5 -116 -324.5 -116h-387v-600h-156v1458h543q204 0 327 -117t123 -313t-125.5 -312z" />
    <glyph glyph-name="Q" unicode="Q" horiz-adv-x="1329" 
d="M1002 1064q-18 95 -74 153q-110 114 -262 114t-252 -104q-67 -67 -85 -162.5t-18 -335.5t18 -335.5t75 -153.5q111 -113 262 -113q115 0 206 70l-184 184l94 94l179 -178q37 61 48 152.5t11 305.5t-18 309zM666 -12q-221 0 -373 151q-94 94 -115.5 207t-21.5 306.5
t2 280.5t21.5 189.5t113.5 196.5q152 152 373 151.5t372 -151.5q94 -94 116 -209.5t22 -300.5q0 -310 -16 -424.5t-85 -202.5l160 -159l-94 -95l-162 162q-133 -102 -313 -102z" />
    <glyph glyph-name="R" unicode="R" horiz-adv-x="1343" 
d="M1047 1050.5q0 135.5 -81 202t-210 66.5h-389v-535h389q129 0 210 65.5t81 201zM367 647v-647h-156v1458h559q194 0 313 -109t119 -282q0 -174 -88 -275.5t-229 -129.5l346 -662h-182l-332 647h-350z" />
    <glyph glyph-name="S" unicode="S" horiz-adv-x="1204" 
d="M608 127q142 0 234 70.5t92 195.5t-52.5 171t-90 59.5t-117.5 25.5l-170 27q-174 28 -276 118t-103 272q0 182 126.5 293t340.5 111q139 0 239.5 -37.5t194.5 -121.5l-100 -101q-68 61 -146 93t-210 32t-211.5 -73.5t-79.5 -190.5t68 -175t194 -79l159 -24
q181 -25 267 -103q123 -105 123 -293t-138 -298.5t-366 -110.5q-164 0 -281 45t-219 147l107 107q90 -90 181.5 -125t233.5 -35z" />
    <glyph glyph-name="T" unicode="T" horiz-adv-x="1122" 
d="M1061 1319h-422v-1319h-156v1319h-422v139h1000v-139z" />
    <glyph glyph-name="U" unicode="U" horiz-adv-x="1398" 
d="M1208 481q0 -220 -144 -356.5t-367 -136.5t-365 138t-142 355v977h156v-964q0 -168 97.5 -267.5t255.5 -99.5t256 100t98 267v964h155v-977z" />
    <glyph glyph-name="V" unicode="V" horiz-adv-x="1118" 
d="M1102 1458l-479 -1458h-127l-480 1458h164l379 -1179l379 1179h164z" />
    <glyph glyph-name="W" unicode="W" horiz-adv-x="1748" 
d="M1716 1458l-373 -1458h-145l-324 1167l-323 -1167h-145l-373 1458h166l284 -1175l322 1175h139l322 -1175l284 1175h166z" />
    <glyph glyph-name="X" unicode="X" horiz-adv-x="1128" 
d="M1098 0h-180l-355 612l-356 -612h-176l446 748l-418 710h181l323 -575l324 575h180l-420 -710z" />
    <glyph glyph-name="Y" unicode="Y" horiz-adv-x="1052" 
d="M606 0h-155v602l-435 856h168l344 -698l340 698h168l-430 -856v-602z" />
    <glyph glyph-name="Z" unicode="Z" horiz-adv-x="1138" 
d="M1022 0h-905v147l729 1172h-701v139h877v-131l-735 -1188h735v-139z" />
    <glyph glyph-name="bracketleft" unicode="[" horiz-adv-x="641" 
d="M551 -152h-363v1762h363v-131h-215v-1499h215v-132z" />
    <glyph glyph-name="backslash" unicode="\" horiz-adv-x="727" 
d="M727 -152h-145l-582 1756h145z" />
    <glyph glyph-name="bracketright" unicode="]" horiz-adv-x="641" 
d="M453 -152h-363v127h221v1508h-221v127h363v-1762z" />
    <glyph glyph-name="asciicircum" unicode="^" horiz-adv-x="1099" 
d="M952 846h-151l-250 467l-252 -467h-152l336 624h135z" />
    <glyph glyph-name="underscore" unicode="_" horiz-adv-x="1099" 
d="M1100 -338h-1100v105h1100v-105z" />
    <glyph glyph-name="grave" unicode="`" horiz-adv-x="1024" 
d="M612 1217h-135l-221 313h176z" />
    <glyph glyph-name="a" unicode="a" horiz-adv-x="1077" 
d="M756 465h-283q-225 0 -225 -178q0 -88 55 -130t149 -42t149 10t105 58t50 173v109zM756 672q0 221 -238 221q-118 0 -173.5 -25.5t-100.5 -89.5l-101 92q68 88 151 119t206 31q403 0 403 -336v-684h-147v96q-89 -89 -164.5 -98.5t-153.5 -9.5q-170 0 -258 92
q-76 76 -76 207t89.5 209.5t259.5 78.5h303v97z" />
    <glyph glyph-name="b" unicode="b" horiz-adv-x="1116" 
d="M838 504q0 74 -8.5 143.5t-35 122.5t-76.5 86t-132 33t-132.5 -33t-77 -86t-35.5 -122.5t-9 -143.5t9 -143.5t35.5 -123t77 -86t132.5 -32.5t132 32.5t76.5 86t35 123t8.5 143.5zM939.5 178q-45.5 -190 -323.5 -190q-84 0 -153.5 26.5t-130.5 106.5v-121h-148v1458h148
v-567q61 78 130.5 103.5t150.5 25.5q227 0 291.5 -134.5t72.5 -228.5t8 -191.5t-45.5 -287.5z" />
    <glyph glyph-name="c" unicode="c" horiz-adv-x="1003" 
d="M580 -12q-100 0 -181.5 32.5t-141.5 97t-94 161t-34 286t124 322.5t322 133q104 0 179 -33t153 -117l-100 -94q-57 63 -108.5 88t-124.5 25q-149 0 -232 -115q-66 -92 -66 -319.5t113 -281.5t185 -54t124 25.5t109 88.5l100 -96q-78 -84 -152.5 -116.5t-174.5 -32.5z" />
    <glyph glyph-name="d" unicode="d" horiz-adv-x="1116" 
d="M784 504q0 74 -8 143.5t-34.5 122.5t-77 86t-132 33t-132 -33t-77 -86t-35.5 -122.5t-9 -143.5t9 -143.5t35.5 -123t77 -86t132 -32.5t132 32.5t77 86t34.5 123t8 143.5zM786 0v121q-61 -80 -131.5 -106.5t-151.5 -26.5q-227 0 -291.5 134.5t-72.5 228t-8 191.5t45.5 288
t323.5 190q84 0 153.5 -25.5t130.5 -103.5v567h148v-1458h-146z" />
    <glyph glyph-name="e" unicode="e" horiz-adv-x="1085" 
d="M543 895q-80 0 -164 -54t-92 -144.5t-11 -121.5h533q-7 203 -96.5 261.5t-169.5 58.5zM276 465q0 -166 76 -257t221 -91q88 0 146.5 27.5t118.5 86.5l100 -88q-80 -80 -162.5 -117.5t-194.5 -37.5q-219 0 -335.5 129.5t-116.5 381.5q0 251 110.5 386t305.5 135t303 -131
t108 -357v-67h-680z" />
    <glyph glyph-name="f" unicode="f" horiz-adv-x="643" 
d="M500 1335q-135 0 -135 -147v-187h215v-112h-215v-889h-148v889h-129v112h129v191q0 184 96.5 227t159.5 43h107v-127h-80z" />
    <glyph glyph-name="g" unicode="g" horiz-adv-x="1112" 
d="M780 513q0 71 -8 138.5t-34.5 119.5t-76 85t-164.5 33t-166.5 -100.5t-51.5 -276.5t34.5 -243.5t85 -100.5t132 -33t131 33t76 85t34.5 120.5t8 139.5zM928 -31q0 -190 -112.5 -311t-307.5 -121q-114 0 -187 30.5t-155 104.5l96 95q64 -55 110.5 -78t126.5 -23
q143 0 212 83.5t69 225.5v158q-61 -78 -130.5 -104.5t-149.5 -26.5q-156 0 -239 83t-106.5 193.5t-23.5 233.5t23.5 233.5t105.5 192.5t240 82q84 0 152.5 -25.5t129.5 -105.5v119h146v-1039z" />
    <glyph glyph-name="h" unicode="h" horiz-adv-x="1150" 
d="M829 0v623q0 133 -65.5 199.5t-180 66.5t-183 -67.5t-68.5 -198.5v-623h-148v1458h148v-561q110 123 282 123t267.5 -100.5t95.5 -272.5v-647h-148z" />
    <glyph glyph-name="i" unicode="i" horiz-adv-x="518" 
d="M332 0h-148v1008h148v-1008zM342 1294h-166v166h166v-166z" />
    <glyph glyph-name="j" unicode="j" horiz-adv-x="518" 
d="M332 -182q0 -115 -61.5 -193t-194.5 -78h-107v129h80q78 0 106.5 37t28.5 111v1177h148v-1183zM176 1294v166h166v-166h-166z" />
    <glyph glyph-name="k" unicode="k" horiz-adv-x="1097" 
d="M332 0h-148v1458h148v-975l454 525h185l-342 -385l401 -623h-182l-320 516l-196 -225v-291z" />
    <glyph glyph-name="l" unicode="l" horiz-adv-x="608" 
d="M436 0q-131 0 -193.5 77t-62.5 191v1190h148v-1184q0 -74 28.5 -110.5t106.5 -36.5h80v-127h-107z" />
    <glyph glyph-name="m" unicode="m" horiz-adv-x="1800" 
d="M1257 1020q161 0 265 -99q105 -99 104 -276v-645h-147v621q0 135 -66.5 201.5t-179.5 66.5t-183.5 -65.5t-70.5 -186.5v-637h-148v621q0 135 -66.5 201.5t-181 66.5t-183 -67.5t-68.5 -200.5v-621h-148v1008h148v-111q107 123 284 123q216 0 310 -168q119 168 331 168z
" />
    <glyph glyph-name="n" unicode="n" horiz-adv-x="1150" 
d="M829 0v621q0 135 -66.5 201.5t-181 66.5t-182 -67.5t-67.5 -200.5v-621h-148v1008h148v-111q110 123 278 123t267 -98t100 -277v-645h-148z" />
    <glyph glyph-name="o" unicode="o" horiz-adv-x="1085" 
d="M727 815q-73 74 -183 74t-183 -73t-77.5 -171t-4.5 -175t16 -151t65 -126q74 -74 184 -74t182 72t76.5 171t4.5 239t-80 214zM543 -12q-175 0 -289 114q-76 78 -99.5 181.5t-23.5 220.5t23.5 219.5t87.5 168.5q126 128 300 128t293 -119t119 -398t-118 -397t-293 -118z
" />
    <glyph glyph-name="p" unicode="p" horiz-adv-x="1116" 
d="M838 504q0 74 -8.5 143.5t-35 122.5t-76.5 86t-132 33t-132.5 -33t-77 -86t-35.5 -122.5t-9 -143.5t9 -143.5t35.5 -123t77 -86t132.5 -32.5t132 32.5t76.5 86t35 123t8.5 143.5zM939.5 178q-45.5 -190 -323.5 -190q-84 0 -153.5 26.5t-130.5 104.5v-570h-148v1459h148
v-119q61 80 130.5 105.5t150.5 25.5q227 0 291.5 -134.5t72.5 -228.5t8 -191.5t-45.5 -287.5z" />
    <glyph glyph-name="q" unicode="q" horiz-adv-x="1116" 
d="M784 504q0 74 -8 143.5t-34.5 122.5t-77 86t-132 33t-132 -33t-77 -86t-35.5 -122.5t-9 -143.5t9 -143.5t35.5 -123t77 -86t132 -32.5t132 32.5t77 86t34.5 123t8 143.5zM784 -451v570q-61 -78 -130.5 -104.5t-150.5 -26.5q-227 0 -291.5 134.5t-72.5 228t-8 191.5
t45.5 288t323.5 190q84 0 154.5 -25.5t131.5 -105.5v119h146v-1459h-148z" />
    <glyph glyph-name="r" unicode="r" horiz-adv-x="862" 
d="M576 889q-114 0 -179 -78.5t-65 -192.5v-618h-148v1008h148v-123q41 63 117.5 99t156.5 36t138.5 -20.5t111.5 -73.5l-108 -111q-41 41 -77.5 57.5t-94.5 16.5z" />
    <glyph glyph-name="s" unicode="s" horiz-adv-x="1015" 
d="M276 735q0 -72 40 -108.5t137 -44.5l161 -15q147 -13 222 -76.5t75 -200.5t-112 -219.5t-297 -82.5q-129 0 -229.5 32.5t-184.5 112.5l98 98q109 -116 314 -116q125 0 196.5 44t71.5 122t-40 114.5t-128 44.5l-166 15q-301 25 -301 270q0 136 103.5 215.5t267.5 79.5
q232 0 362 -109l-96 -96q-103 80 -268 80q-111 0 -168.5 -44t-57.5 -116z" />
    <glyph glyph-name="t" unicode="t" horiz-adv-x="679" 
d="M356 274q0 -147 138 -147h77v-127h-104q-186 0 -222 107.5t-36 162.5v619h-127v112h127v316h147v-316h215v-112h-215v-615z" />
    <glyph glyph-name="u" unicode="u" horiz-adv-x="1150" 
d="M174 365v643h148v-621q0 -135 65.5 -201.5t180 -66.5t183 67.5t68.5 200.5v621h148v-1008h-146v113q-109 -125 -279 -125q-172 0 -270 98t-98 279z" />
    <glyph glyph-name="v" unicode="v" horiz-adv-x="915" 
d="M893 1008l-371 -1008h-131l-368 1008h159l275 -809l276 809h160z" />
    <glyph glyph-name="w" unicode="w" horiz-adv-x="1482" 
d="M1460 1008l-317 -1008h-137l-265 782l-262 -782h-137l-319 1008h159l232 -809l264 809h127l266 -809l229 809h160z" />
    <glyph glyph-name="x" unicode="x" horiz-adv-x="978" 
d="M911 0h-178l-241 391l-246 -391h-178l342 514l-328 494h178l232 -373l227 373h178l-328 -494z" />
    <glyph glyph-name="y" unicode="y" horiz-adv-x="915" 
d="M102 -432v131h45q77 0 109.5 28t56.5 97l72 196l-362 988h159l277 -809l274 809h160l-459 -1252q-68 -188 -268 -188h-64z" />
    <glyph glyph-name="z" unicode="z" horiz-adv-x="940" 
d="M834 0h-732v127l562 750h-531v131h701v-125l-564 -752h564v-131z" />
    <glyph glyph-name="braceleft" unicode="{" horiz-adv-x="724" 
d="M549 -152q-213 0 -240.5 92.5t-27.5 172.5v391q0 116 -50.5 138t-78.5 22h-54v131h54q54 0 92 36q37 37 37 123v392q0 80 27.5 172t240.5 92h76v-131h-47q-94 0 -116 -21.5t-28 -52.5t-6 -86v-385q0 -88 -35 -132t-94 -73q59 -29 94 -73t35 -132v-385q0 -104 22.5 -126.5
t48 -27.5t79.5 -5h47v-132h-76z" />
    <glyph glyph-name="bar" unicode="|" horiz-adv-x="667" 
d="M408 -152h-148v1762h148v-1762z" />
    <glyph glyph-name="braceright" unicode="}" horiz-adv-x="724" 
d="M573 664q-53 0 -91 -37t-38 -123v-391q0 -80 -27.5 -172.5t-240.5 -92.5h-78v132h49q53 0 78 5t48.5 28.5t23.5 125.5v385q0 88 35 132t94 73q-59 29 -94 73t-35 132v385q0 103 -29 131.5t-121 28.5h-49v131h78q213 0 240.5 -92.5t27.5 -171.5v-392q0 -117 50.5 -138
t78.5 -21h52v-131h-52z" />
    <glyph glyph-name="asciitilde" unicode="~" horiz-adv-x="1103" 
d="M831 441.5q-57 -11.5 -112 -11.5t-179 56t-161 57q-63 0 -98 -19t-91 -73l-90 92q84 84 136.5 111.5t117.5 27.5q64 0 115 -18t103 -42t89 -38.5t69 -14.5q56 0 92.5 20t88.5 73l93 -93q-116 -116 -173 -127.5z" />
    <glyph glyph-name="Aring" horiz-adv-x="1251" 
d="M899 465l-270 770l-275 -770h545zM1227 0h-166l-117 330h-637l-117 -330h-165l536 1458h131zM760 1776q0 59 -41 99t-101 40t-100 -40q-41 -40 -41 -99q0 -58 41 -100t100 -42t101 41q41 42 41 101zM788 1604q-72 -72 -172 -72t-167 72q-72 72 -72 172q-1 100 71 171
q72 70 173 70q101 -1 170 -71t69 -172t-72 -170z" />
    <glyph glyph-name="ccedilla" horiz-adv-x="1011" 
d="M643 -225h-143v219q-262 39 -316.5 216t-54.5 300q0 244 124 377t322 133q104 0 179 -33t153 -117l-100 -94q-57 63 -108.5 88t-124.5 25q-149 0 -232 -115q-66 -92 -66 -319.5t113 -281.5t185 -54t124 25.5t109 88.5l100 -96q-66 -72 -126 -104.5t-138 -40.5v-217z" />
    <glyph glyph-name="eacute" horiz-adv-x="1085" 
d="M543 895q-79 0 -143 -41q-105 -68 -119 -225q-2 -23 -5 -54h533q-3 103 -32 171q-28 67 -91 108t-143 41zM276 465q0 -166 76 -257t221 -91q89 -1 147 27t118 87l100 -88q-81 -81 -141 -107q-108 -48 -218 -48q-324 0 -418 285q-32 97 -32 231q0 246 111 381
q112 135 306 135t302 -131t108 -357v-67h-680zM805 1530l-221 -313h-135l180 313h176z" />
    <glyph glyph-name="egrave" horiz-adv-x="1085" 
d="M543 895q-79 0 -143 -41q-105 -68 -119 -225q-2 -23 -5 -54h533q-3 103 -32 171q-28 67 -91 108t-143 41zM276 465q0 -166 76 -257t221 -91q89 -1 147 27t118 87l100 -88q-81 -81 -141 -107q-108 -48 -218 -48q-324 0 -418 285q-32 97 -32 231q0 246 111 381
q112 135 306 135t302 -131t108 -357v-67h-680zM649 1217h-135l-221 313h176z" />
    <glyph glyph-name="ecircumflex" horiz-adv-x="1085" 
d="M543 895q-79 0 -143 -41q-105 -68 -119 -225q-2 -23 -5 -54h533q-3 103 -32 171q-28 67 -91 108t-143 41zM276 465q0 -166 76 -257t221 -91q89 -1 147 27t118 87l100 -88q-81 -81 -141 -107q-108 -48 -218 -48q-324 0 -418 285q-32 97 -32 231q0 246 111 381
q112 135 306 135t302 -131t108 -357v-67h-680zM874 1217h-141l-184 213l-184 -213h-142l256 313h139z" />
    <glyph glyph-name="ugrave" horiz-adv-x="1153" 
d="M174 365v643h148v-621q0 -135 66 -202t180 -67t183 68t68 201v621h148v-1008h-146v113q-110 -127 -280 -126q-171 1 -269 99t-98 279zM670 1217h-135l-222 313h176z" />
    <glyph glyph-name="ucircumflex" horiz-adv-x="1153" 
d="M174 365v643h148v-621q0 -135 66 -202t180 -67t183 68t68 201v621h148v-1008h-146v113q-110 -127 -280 -126q-171 1 -269 99t-98 279zM895 1217h-141l-185 213l-184 -213h-141l256 313h139z" />
    <glyph glyph-name="dagger" unicode="&#xa0;" horiz-adv-x="1239" 
d="M1087 911h-397v-911h-147v911h-391v131h391v416h147v-416h397v-131z" />
    <glyph glyph-name="degree" unicode="&#xa1;" horiz-adv-x="948" 
d="M686 1142q0 46 -16.5 85t-45 68.5t-67.5 46t-107.5 16.5t-128 -63.5t-59.5 -153.5t60 -153.5t176.5 -63.5t152 86t35.5 132zM811 1140.5q0 -69.5 -26.5 -131t-71.5 -106.5t-106.5 -71.5t-131 -26.5t-131 26.5t-108 71.5t-73 106.5t-26.5 131t26.5 131t73 106.5t108 72
t131 27t131 -27t106.5 -72t71.5 -106.5t26.5 -131z" />
    <glyph glyph-name="cent" unicode="&#xa2;" horiz-adv-x="1019" 
d="M276 749.5q0 -175.5 66 -266.5q66 -92 166 -110v753q-100 -18 -166 -110q-66 -91 -66 -266.5zM621 0h-121v240q-170 25 -270.5 155.5t-100.5 354t100.5 354.5t270.5 156v198h121v-194q92 -6 158.5 -40t138.5 -112l-101 -94q-51 57 -97 82.5t-108 29.5v-761
q61 4 107.5 29.5t97.5 82.5l101 -94q-72 -78 -138.5 -111.5t-158.5 -39.5v-236z" />
    <glyph glyph-name="sterling" unicode="&#xa3;" horiz-adv-x="1122" 
d="M225 0v676h-129v110h129v230q0 208 127 331t330 123t334 -131l-107 -104q-39 41 -88 68.5t-139 27.5q-143 0 -221 -87t-78 -249v-209h299v-110h-299v-537h633v-139h-791z" />
    <glyph glyph-name="section" unicode="&#xa4;" horiz-adv-x="1140" 
d="M571.5 256q108.5 0 174.5 74t67 192t-69 189q-70 69 -176 69t-173 -74t-67 -187t67 -189q68 -74 176.5 -74zM393 852q-190 90 -190 264q0 250 144.5 302t264.5 52t224 -86.5t108 -234.5h-147q-15 190 -226 190q-104 0 -162.5 -51t-58.5 -142t47 -137t125 -69l160 -45
q135 -39 208 -137.5t73 -225.5t-61 -214t-152 -134q88 -33 143 -107.5t55 -170.5q0 -174 -107 -271.5t-270 -97.5q-250 0 -316.5 124t-70.5 206h150q10 -96 71.5 -145.5t166 -49.5t166 55.5t61.5 143.5q0 175 -181 225l-159 45q-135 39 -208 136.5t-73 225.5q0 239 215 349z
" />
    <glyph glyph-name="bullet" unicode="&#xa5;" horiz-adv-x="1089" 
d="M879 684q0 -70 -27 -130t-72 -105.5t-105.5 -72t-130 -26.5t-130 26.5t-105.5 72t-71.5 105.5t-26.5 130t26.5 130t71.5 105.5t105.5 72t130 26.5t130 -26.5t105.5 -72t72 -105.5t27 -130z" />
    <glyph glyph-name="paragraph" unicode="&#xa6;" horiz-adv-x="1234" 
d="M877 -451v1770h-240v-1770h-148v1119q-180 0 -291.5 118t-111.5 283q0 164 121 276.5t323 112.5h494v-1909h-147z" />
    <glyph glyph-name="germandbls" unicode="&#xa7;" horiz-adv-x="1138" 
d="M991 643v-354q0 -141 -79 -215t-212 -74h-110v127h82q45 0 69.5 9t51.5 32q51 41 51 137v346q0 84 -43 127t-121 43h-90v123h74q80 0 130 50t50 138t-62 150t-197 61q-134 0 -192.5 -76.5t-58.5 -199.5v-1067h-150v1073q0 193 111 296.5t291 103.5t292.5 -84.5
t112.5 -249.5t-129 -250q74 -39 101.5 -93.5t27.5 -152.5z" />
    <glyph glyph-name="registered" unicode="&#xa8;" horiz-adv-x="1804" 
d="M1077 892.5q0 61.5 -43 102.5t-110 41h-152v-284h152q68 0 110.5 39.5t42.5 101zM772 655v-331h-113v813h277q106 0 181 -71t75 -167t-49 -151.5t-125 -77.5l194 -346h-131l-186 331h-123zM1526 729q0 131 -49.5 246t-134.5 201t-198.5 136t-242.5 50t-242.5 -50
t-197.5 -136t-133 -201t-49 -246t49 -245.5t133 -200.5t197.5 -136.5t242.5 -50.5t242.5 50.5t198.5 136.5t134.5 200.5t49.5 245.5zM1642 729q0 -154 -58 -289t-158.5 -235.5t-235.5 -158.5t-288.5 -58t-289 58t-236 158.5t-158.5 235.5t-58 289t58 289t158.5 235.5
t236 158.5t289 58t288.5 -58t235.5 -158.5t158.5 -235.5t58 -289z" />
    <glyph glyph-name="copyright" unicode="&#xa9;" horiz-adv-x="1804" 
d="M911 1044q-249 0 -249 -315q0 -222 90 -267.5t153 -45.5t106.5 16.5t94.5 61.5l74 -74q-59 -53 -121 -80t-149 -27t-155.5 32t-114.5 87t-69.5 131t-23.5 215t96.5 254t267.5 115q86 0 145.5 -26.5t123.5 -82.5l-74 -73q-51 45 -94 62t-101 17zM1524 729
q0 129 -49.5 243.5t-133.5 201t-197.5 136.5t-242.5 50t-241.5 -50t-197.5 -136.5t-133 -201t-48 -243.5t48 -243.5t133 -200.5t197.5 -136.5t241.5 -50.5t242.5 50.5t197.5 136.5t133.5 200.5t49.5 243.5zM1642 729q0 -154 -58 -289t-158.5 -235.5t-235.5 -158.5
t-288.5 -58t-289 58t-236 158.5t-158.5 235.5t-58 289t58 289t158.5 235.5t236 158.5t289 58t288.5 -58t235.5 -158.5t158.5 -235.5t58 -289z" />
    <glyph glyph-name="trademark" unicode="&#xaa;" horiz-adv-x="1718" 
d="M678 1350h-244v-766h-119v766h-241v108h604v-108zM1599 584h-116v630l-209 -413h-115l-209 413v-630h-119v874h119l267 -530l266 530h116v-874z" />
    <glyph glyph-name="acute" unicode="&#xab;" horiz-adv-x="1024" 
d="M768 1530l-221 -313h-135l180 313h176z" />
    <glyph glyph-name="dieresis" unicode="&#xac;" horiz-adv-x="1024" 
d="M369 1233h-148v182h148v-182zM803 1233h-148v182h148v-182z" />
    <glyph glyph-name="notequal" unicode="&#xad;" horiz-adv-x="1099" 
d="M993 309h-581l-211 -227l-95 82l138 145h-138v135h259l202 211h-461v138h582l213 227l92 -84l-137 -143h137v-138h-258l-200 -211h458v-135z" />
    <glyph glyph-name="AE" unicode="&#xae;" horiz-adv-x="1888" 
d="M872 481v838l-438 -838h438zM1776 0h-904v346h-505l-181 -346h-170l770 1458h990v-139h-750v-518h639v-139h-639v-523h750v-139z" />
    <glyph glyph-name="Oslash" unicode="&#xaf;" horiz-adv-x="1335" 
d="M325.5 417q14.5 -93 57.5 -149l479 1004q-87 59 -178 59q-171 0 -270 -104q-67 -67 -85 -162.5t-18 -324.5q0 -230 14.5 -323zM647 127q169 0 271 104q63 63 81.5 160.5t18.5 267.5q0 285 -13 379t-57 152l-479 -1004q87 -59 178 -59zM1154 347.5q-22 -116.5 -106 -199.5
q-162 -160 -382 -160q-143 0 -258 65l-68 -143h-133l102 213l-16 16q-94 94 -115.5 207t-21.5 306.5t2 280.5t21.5 189.5t113.5 196.5q152 152 373 151q143 0 256 -63l69 141h133l-102 -213l38 -37q107 -107 111.5 -279.5t4.5 -363.5t-22 -307.5z" />
    <glyph glyph-name="infinity" unicode="&#xb0;" horiz-adv-x="1654" 
d="M465 737q-80 0 -133 -53t-53 -139t53 -138.5t133 -52.5t138 52.5t130 138.5q-72 86 -130 139t-138 53zM1374 545q0 86 -52 138t-132 52t-139.5 -52t-130.5 -138q72 -86 131 -138.5t139 -52.5t132 52.5t52 138.5zM827 434q-174 -215 -347 -215q-160 0 -251.5 93.5
t-91.5 234t91.5 234t236.5 93.5q102 0 186 -53t176 -164q92 111 173.5 164t173.5 53t151 -25.5t102 -69.5t66 -103.5t23 -165t-90 -197.5t-234 -92q-106 0 -190 51.5t-175 161.5z" />
    <glyph glyph-name="plusminus" unicode="&#xb1;" 
d="M963 0h-857v137h857v-137zM963 592h-359v-363h-137v363h-361v137h361v358h137v-358h359v-137z" />
    <glyph glyph-name="lessequal" unicode="&#xb2;" horiz-adv-x="2103" 
d="M387 1214h1157l135 -137l-1054 2l1140 -1142l-100 -101l-1141 1143v-1057l-137 137v1155z" />
    <glyph glyph-name="greaterequal" unicode="&#xb3;" horiz-adv-x="2103" 
d="M1716 1214v-1155l-137 -137v1057l-1141 -1143l-100 101l1141 1142l-1055 -2l135 137h1157z" />
    <glyph glyph-name="yen" unicode="&#xb4;" horiz-adv-x="1052" 
d="M920 821v-110h-261l-53 -109v-106h314v-113h-314v-383h-157v383h-316v113h316v106l-54 109h-262v110h205l-322 637h168l344 -698l342 698h166l-321 -637h205z" />
    <glyph glyph-name="mu" unicode="&#xb5;" horiz-adv-x="1148" 
d="M817 0v113q-109 -125 -282 -125q-135 0 -218 75v-514h-147v1459h147v-621q0 -135 67 -201.5t181.5 -66.5t183 67.5t68.5 200.5v621h148v-1008h-148z" />
    <glyph glyph-name="partialdiff" unicode="&#xb6;" horiz-adv-x="1114" 
d="M780 500q0 106 -13.5 182.5t-61.5 126.5q-69 74 -173 74t-172 -70t-72.5 -170t-4.5 -176t15 -150.5t60 -123.5q70 -74 173 -74t163 63t73 137.5t13 180.5zM928 500q0 -276 -104 -388q-117 -125 -292.5 -124.5t-279.5 112.5q-74 78 -95.5 180.5t-21.5 223.5t29 258
t146.5 194.5t199.5 57.5t146.5 -23.5t123.5 -95.5v143q0 210 -101 257.5t-159 47.5q-92 0 -140 -20.5t-118 -81.5l-94 94q84 76 155 105.5t179 29.5q209 0 317.5 -120t108.5 -322v-528z" />
    <glyph glyph-name="summation" unicode="&#xb7;" horiz-adv-x="1128" 
d="M1024 -451h-907v134l413 897l-411 845v131h903v-139h-723l369 -768v-141l-373 -819h729v-140z" />
    <glyph glyph-name="summation" unicode="&#x2219;" horiz-adv-x="1128" 
d="M1024 -451h-907v134l413 897l-411 845v131h903v-139h-723l369 -768v-141l-373 -819h729v-140z" />
    <glyph glyph-name="product" unicode="&#xb8;" horiz-adv-x="1425" 
d="M1214 -451h-155v1868h-692v-1868h-156v2007h1003v-2007z" />
    <glyph glyph-name="pi" unicode="&#xb9;" horiz-adv-x="1210" 
d="M1004 0h-142v874h-512v-874h-143v1008h797v-1008z" />
    <glyph glyph-name="integral" unicode="&#xba;" horiz-adv-x="761" 
d="M156 -319q149 0 149 157v1340q0 131 73 208.5t206 77.5h100v-127h-78q-149 0 -149 -157v-1340q0 -131 -73 -208.5t-206 -77.5h-102v127h80z" />
    <glyph glyph-name="ordfeminine" unicode="&#xbb;" horiz-adv-x="919" 
d="M408 1020q-172 0 -172 -135t155 -135q72 0 116 8t82 44t38 136v82h-219zM627 1186q1 172 -181 172q-94 0 -138 -19.5t-81 -70.5l-84 75q55 72 122 97.5t165 25.5q318 0 318 -270v-543h-119v74q-47 -47 -98.5 -65.5t-132.5 -18.5q-148 0 -222 74q-61 66 -61 167
t70.5 164.5t205.5 63.5h236v74z" />
    <glyph glyph-name="ordmasculine" unicode="&#xbc;" horiz-adv-x="931" 
d="M672 1054.5q0 65.5 -10.5 133t-60.5 117.5t-136 50.5t-136 -49.5t-59.5 -118t-9.5 -133.5t9.5 -132t45.5 -102.5q66 -66 151 -66t135 51t60.5 117.5t10.5 132zM793 1054q0 -93 -18.5 -174.5t-70.5 -133.5q-100 -102 -240 -101.5t-228 90.5q-61 63 -80 144.5t-19 174.5
t18.5 175t70.5 134q102 103 239 103t229 -92q61 -63 80 -145t19 -175z" />
    <glyph glyph-name="Omega" unicode="&#xbd;" horiz-adv-x="1331" 
d="M776 0v131q61 29 107.5 63.5t81 92t44 161.5t9.5 248q0 270 -18 367.5t-75 155.5q-111 112 -259 112t-252 -104q-65 -68 -84 -162.5t-19 -303.5q0 -208 10.5 -312.5t45 -162t81 -92t107.5 -63.5v-131h-399v137h168q-78 66 -107 123t-45 135t-16 111v223q0 270 21.5 383
t115.5 207q152 152 373 151.5t372 -151.5q94 -94 116 -209.5t22 -279.5v-226q0 -225 -56 -330q-33 -68 -114 -137h170v-137h-400z" />
    <glyph glyph-name="ae" unicode="&#xbe;" horiz-adv-x="1710" 
d="M756 465h-283q-225 0 -225 -178q0 -88 55 -130t149 -42t149 10t105 58t50 173v109zM1169.5 895q-79.5 0 -143.5 -40.5t-86 -96.5t-28.5 -88.5t-10.5 -94.5h535q-7 204 -97 262t-169.5 58zM756 672q0 221 -238 221q-118 0 -173.5 -25.5t-100.5 -89.5l-101 92
q68 88 151 119t206 31q270 0 354 -158q106 158 309 158t311.5 -131t108.5 -357v-67h-682q0 -166 77 -257t222 -91q88 0 145.5 27.5t116.5 86.5l103 -88q-76 -76 -160 -115.5t-213 -39.5q-252 0 -358 174q-70 -98 -154 -136t-202 -38q-209 0 -291 84q-83 84 -83 215
t89.5 209.5t259.5 78.5h303v97z" />
    <glyph glyph-name="oslash" unicode="&#xbf;" horiz-adv-x="1085" 
d="M532 889q-98 0 -171 -73t-77.5 -170.5t-4.5 -155.5q0 -177 51 -259l360 615q-60 43 -158 43zM807 518q0 58 -7 130.5t-42 127.5l-363 -612q63 -45 161 -45t170 72t76.5 170.5t4.5 156.5zM836 901q118 -124 118 -367q0 -161 -25.5 -260.5t-88.5 -162.5
q-123 -123 -297 -123q-123 0 -215 55l-78 -133h-117l117 196q-74 78 -96.5 179.5t-22.5 218.5t23.5 220t99.5 181q115 115 303 115q106 0 201 -55l80 133h114z" />
    <glyph glyph-name="questiondown" unicode="&#xc0;" horiz-adv-x="1017" 
d="M862 -88q0 -158 -108.5 -266.5t-273.5 -108.5t-275.5 107t-110.5 268q0 72 26.5 129t67.5 117l168 241q37 60 37 119v82h148v-84q0 -98 -66 -192l-166 -238q-29 -43 -48 -82t-19 -92q0 -104 66.5 -173t172.5 -69t170 72t64 170h147zM379 836v172h174v-172h-174z" />
    <glyph glyph-name="exclamdown" unicode="&#xc1;" horiz-adv-x="647" 
d="M377 -451h-170l20 1049h127zM379 836h-176v172h176v-172z" />
    <glyph glyph-name="logicalnot" unicode="&#xc2;" 
d="M965 211h-138v281h-723v137h861v-418z" />
    <glyph glyph-name="radical" unicode="&#xc3;" horiz-adv-x="1150" 
d="M1090 1319h-183l-432 -1319h-125l-334 1008h162l236 -729l377 1179h299v-139z" />
    <glyph glyph-name="florin" unicode="&#xc4;" horiz-adv-x="825" 
d="M662 1335q-136 0 -162 -147l-70 -402h215v-110h-235l-199 -1127h-148l199 1127h-201v110h222l69 406q34 185 138 227.5t167 42.5h107v-127h-102z" />
    <glyph glyph-name="approxequal" unicode="&#xc5;" horiz-adv-x="1103" 
d="M831 259.5q-57 -11.5 -110 -11.5t-148 42q-94 42 -130.5 56t-66.5 14q-57 0 -93.5 -18.5t-89.5 -73.5l-93 92q87 87 139.5 113.5t115.5 26.5t115 -18t104 -42t88 -38.5t68 -14.5q56 0 92 19.5t89 72.5l93 -92q-116 -116 -173 -127.5zM281 705.5q-36 -17.5 -91 -72.5
l-90 90q84 84 138.5 112.5t116.5 28.5q63 0 114 -20t133 -56t121 -36q61 0 97 16.5t91 73.5l93 -92q-83 -83 -139.5 -111.5t-125.5 -28.5q-70 0 -165 43t-133 56.5t-81 13.5t-79 -17.5z" />
    <glyph glyph-name="Delta" unicode="&#xc6;" horiz-adv-x="1234" 
d="M1014 135l-396 1100l-397 -1100h793zM1217 0h-1201l537 1458h129z" />
    <glyph glyph-name="guillemotleft" unicode="&#xc7;" horiz-adv-x="1134" 
d="M512 119l-430 430l430 430v-184l-246 -246l246 -248v-182zM975 119l-430 430l430 430v-184l-248 -246l248 -248v-182z" />
    <glyph glyph-name="guillemotright" unicode="&#xc8;" horiz-adv-x="1134" 
d="M590 549l-430 -430v182l248 248l-248 246v184zM1053 549l-430 -430v182l245 248l-245 246v184z" />
    <glyph glyph-name="ellipsis" unicode="&#xc9;" horiz-adv-x="1550" 
d="M369 0h-189v188h189v-188zM868 0h-188v188h188v-188zM1370 0h-188v188h188v-188z" />
    <glyph glyph-name="nonbreakingspace" unicode="&#xca;" horiz-adv-x="509" 
 />
    <glyph glyph-name="Agrave" unicode="&#xcb;" horiz-adv-x="1251" 
d="M899 465l-270 770l-275 -770h545zM1227 0h-166l-117 330h-637l-117 -330h-165l536 1458h131zM719 1599h-135l-222 314h177z" />
    <glyph glyph-name="Atilde" unicode="&#xcc;" horiz-adv-x="1251" 
d="M899 465l-270 770l-275 -770h545zM1227 0h-166l-117 330h-637l-117 -330h-165l536 1458h131zM482 1831q46 0 77 -13t85 -45t88 -32t61 10t71 55l76 -73q-70 -70 -115 -87q-85 -32 -155 -6q-33 12 -89 45t-105 33t-111 -65l-76 73q59 59 103 82t90 23z" />
    <glyph glyph-name="Otilde" unicode="&#xcd;" horiz-adv-x="1331" 
d="M328 1057q-17 -94 -17 -331q-1 -238 13 -309t34 -111q51 -103 169 -151q67 -28 139 -28q150 0 252 104q66 65 84 161t18 274t-4 296t-43 190q-51 103 -178 156t-268 -4q-167 -70 -199 -247zM156 653q0 193 2 280q4 179 56 279q28 55 79 107q152 151 373 151t372 -151
q94 -94 116 -210t22 -384t-16 -346q-29 -145 -112 -229q-160 -162 -382 -162q-221 0 -373 151q-94 94 -120 231q-17 90 -17 283zM627 1685q-57 33 -98 33q-40 0 -67 -21t-50 -44l-76 73q92 92 156 102q20 3 60 3q40 -1 99 -35q57 -34 83 -44t53 -11q27 0 53 10t71 55l76 -73
q-70 -70 -115 -87q-46 -18 -84 -18t-71 12t-90 45z" />
    <glyph glyph-name="OE" unicode="&#xce;" horiz-adv-x="2025" 
d="M625.5 1331q-111.5 0 -211.5 -104q-67 -67 -85 -162.5t-18 -335.5t18 -335.5t75 -153.5q111 -113 261.5 -113t252.5 104q63 63 81.5 160.5t18.5 337.5t-25.5 373.5t-140.5 181t-226.5 47.5zM1911 137v-137h-893v152q-133 -164 -353 -164t-372 151q-95 95 -116 207.5
t-21 306t2 280.5t21 189t114 197q152 151 373 151t352 -163v151h889v-137h-733l2 -520h622v-131h-622l-2 -533h737z" />
    <glyph glyph-name="oe" unicode="&#xcf;" horiz-adv-x="1763" 
d="M727 815q-73 74 -183 74t-183 -73t-77.5 -171t-4.5 -175t16 -151t65 -126q74 -74 184 -74t182 72t76.5 171t4.5 239t-80 214zM1220.5 895q-79.5 0 -158 -50.5t-91.5 -132.5t-17 -137h535q-7 105 -34 172q-28 66 -91.5 107t-143 41zM954 465q0 -166 76 -257t221 -91
q88 0 146.5 27.5t118.5 86.5l100 -88q-80 -80 -162.5 -117.5t-206.5 -37.5q-254 0 -362 194q-47 -92 -137.5 -143t-193.5 -51q-186 0 -300 114q-76 78 -99.5 181.5t-23.5 299.5t119 317q119 120 293 120q115 0 206 -51t138 -144q104 195 334 195q197 0 305 -131t108 -357
v-67h-680z" />
    <glyph glyph-name="endash" unicode="&#xd0;" 
d="M963 483h-857v138h857v-138z" />
    <glyph glyph-name="emdash" unicode="&#xd1;" horiz-adv-x="1871" 
d="M1716 483h-1560v140h1560v-140z" />
    <glyph glyph-name="quotedblleft" unicode="&#xd2;" horiz-adv-x="888" 
d="M358 1286h-178v172l178 162v-334zM709 1286h-181v172l181 162v-334z" />
    <glyph glyph-name="quotedblright" unicode="&#xd3;" horiz-adv-x="888" 
d="M180 1458h178v-172l-178 -162v334zM528 1458h181v-172l-181 -162v334z" />
    <glyph glyph-name="quoteleft" unicode="&#xd4;" horiz-adv-x="538" 
d="M358 1286h-178v172l178 162v-334z" />
    <glyph glyph-name="quoteright" unicode="&#xd5;" horiz-adv-x="538" 
d="M180 1458h178v-172l-178 -162v334z" />
    <glyph glyph-name="divide" unicode="&#xd6;" 
d="M623 100h-177v176h177v-176zM965 483h-861v138h861v-138zM623 827h-177v177h177v-177z" />
    <glyph glyph-name="lozenge" unicode="&#xd7;" horiz-adv-x="1329" 
d="M1026 721l-360 518l-363 -518l363 -522zM1192 721l-526 -746l-529 746l529 745z" />
    <glyph glyph-name="ydieresis" unicode="&#xd8;" horiz-adv-x="913" 
d="M166 -432h-64v131h45q78 0 110 28t56 97l72 196l-362 988h159l277 -809l274 809h160l-459 -1252q-68 -188 -268 -188zM315 1233h-147v182h147v-182zM750 1233h-148v182h148v-182z" />
    <glyph glyph-name="Ydieresis" unicode="&#xd9;" horiz-adv-x="1054" 
d="M606 0h-155v602l-435 856h168l344 -698l340 698h168l-430 -856v-602zM383 1616h-147v182h147v-182zM817 1616h-147v182h147v-182z" />
    <glyph glyph-name="fraction" unicode="&#xda;" horiz-adv-x="1331" 
d="M297 1608v137h686v-137h-686zM1180 532q0 -127 -29 -216q-29 -88 -101 -166q-151 -162 -378 -162q-226 0 -379 151q-94 94 -120 231q-17 90 -17 283t2 280q4 179 56 279q28 55 79 107q152 151 366 151t347 -118q134 -118 170 -318h-156q-31 139 -124 218t-239 79
t-243 -104q-67 -67 -85 -165t-18 -336q-1 -238 13 -310t34 -112q52 -104 169 -150q67 -27 143 -27t148 32t121 89q49 58 67 120t18 148v111h-358v137h514v-232z" />
    <glyph glyph-name="currency" unicode="&#xdb;" horiz-adv-x="1112" 
d="M252 1294v117h618v-117h-618zM737 253q43 83 43 259t-35 244q-35 67 -83 100q-50 33 -132 33q-150 0 -208 -118q-43 -83 -43 -259t35 -244q34 -67 84 -100t132 -33q148 0 207 118zM928 -31q0 -190 -113 -311t-307 -121q-114 0 -185 29t-157 106l96 95q91 -79 166 -95
q34 -6 92 -6q120 0 190 84t70 225v158q-61 -79 -131 -105q-69 -26 -149 -26q-153 0 -238 83q-84 83 -107 194q-24 111 -24 233t24 234q23 110 105 192t240 82q84 0 152 -26t130 -105v119h146v-1039z" />
    <glyph glyph-name="guilsinglleft" unicode="&#xdc;" horiz-adv-x="577" 
d="M211 1792h145v-182h-145v182zM367 0h-156v1458h156v-1458z" />
    <glyph glyph-name="guilsinglright" unicode="&#xdd;" horiz-adv-x="518" 
d="M332 0h-148v1008h148v-1008z" />
    <glyph glyph-name="fi" unicode="&#xde;" horiz-adv-x="1204" 
d="M664 -225h-144l-2 215q-137 8 -238 53t-194 137l107 107q90 -90 182 -125q91 -35 233 -35t234 71q92 72 92 196t-70 186q-34 31 -72 44t-118 25l-170 27q-174 28 -276 118t-103 271q0 181 127 294t340 111q139 0 239 -38t195 -121l-100 -101q-68 62 -146 94t-210 32
t-212 -74t-80 -191t66 -174q67 -55 197 -80l159 -24q102 -14 162 -38t105 -65q123 -104 123 -284t-116 -288t-310 -126v-217z" />
    <glyph glyph-name="fl" unicode="&#xdf;" horiz-adv-x="1015" 
d="M580 -225h-142l-2 217q-214 12 -348 141l98 98q111 -118 314 -116q124 0 196 44t72 122q0 79 -40 115t-128 44l-166 15q-301 25 -301 270q0 135 102 214t269 81q229 0 362 -109l-96 -96q-103 80 -268 80q-111 0 -168 -44q-58 -44 -58 -116q0 -73 40 -109t137 -44l161 -15
q147 -13 223 -78q76 -64 75 -193q-1 -130 -91 -209t-241 -95v-217z" />
    <glyph glyph-name="daggerdbl" unicode="&#xe0;" horiz-adv-x="1239" 
d="M1087 -33h-397v-418h-147v418h-391v131h391v813h-391v131h391v416h147v-416h397v-131h-397v-813h397v-131z" />
    <glyph glyph-name="periodcentered" unicode="&#xe1;" horiz-adv-x="552" 
d="M373 457h-193v192h193v-192z" />
    <glyph glyph-name="quotesinglbase" unicode="&#xe2;" horiz-adv-x="538" 
d="M180 172h178v-172l-178 -162v334z" />
    <glyph glyph-name="quotedblbase" unicode="&#xe3;" horiz-adv-x="888" 
d="M180 172h178v-172l-178 -162v334zM528 172h181v-172l-181 -162v334z" />
    <glyph glyph-name="perthousand" unicode="&#xe4;" horiz-adv-x="2414" 
d="M250 985q0 -176 159.5 -176t159.5 176v207q0 178 -159 178q-86 0 -123 -47t-37 -131v-207zM686 981q0 -125 -79 -199.5t-199 -74.5t-197.5 74.5t-77.5 199.5v215q0 127 78 202t198 75t198.5 -75t78.5 -202v-215zM573 0h-122l684 1458h122zM1298 88q160 0 160 178v207
q0 178 -160 178q-86 0 -122.5 -47t-36.5 -131v-207q0 -84 36.5 -131t122.5 -47zM1575 262q0 -127 -79 -201.5t-199 -74.5t-197.5 74.5t-77.5 201.5v215q0 127 78 202t198 75t198.5 -75t78.5 -202v-215zM2007 88q160 0 160 178v207q0 178 -160 178q-86 0 -123 -47t-37 -131
v-207q0 -84 37 -131t123 -47zM2284 262q0 -127 -79 -201.5t-199 -74.5t-197.5 74.5t-77.5 201.5v215q0 127 77.5 202t197.5 75t199 -75t79 -202v-215z" />
    <glyph glyph-name="Acircumflex" unicode="&#xe5;" horiz-adv-x="1251" 
d="M899 465l-270 770l-275 -770h545zM1227 0h-166l-117 330h-637l-117 -330h-165l536 1458h131zM944 1599h-141l-185 213l-184 -213h-141l256 314h139z" />
    <glyph glyph-name="Ecircumflex" unicode="&#xe6;" horiz-adv-x="1228" 
d="M1116 0h-905v1458h905v-139h-749v-514h639v-139h-639v-527h749v-139zM967 1599h-142l-184 213l-184 -213h-142l256 314h140z" />
    <glyph glyph-name="Aacute" unicode="&#xe7;" horiz-adv-x="1251" 
d="M899 465l-270 770l-275 -770h545zM1227 0h-166l-117 330h-637l-117 -330h-165l536 1458h131zM874 1913l-221 -314h-135l180 314h176z" />
    <glyph glyph-name="Edieresis" unicode="&#xe8;" horiz-adv-x="1228" 
d="M1116 0h-905v1458h905v-139h-749v-514h639v-139h-639v-527h749v-139zM498 1616h-148v182h148v-182zM932 1616h-148v182h148v-182z" />
    <glyph glyph-name="Egrave" unicode="&#xe9;" horiz-adv-x="1228" 
d="M1116 0h-905v1458h905v-139h-749v-514h639v-139h-639v-527h749v-139zM741 1599h-135l-221 314h176z" />
    <glyph glyph-name="Iacute" unicode="&#xea;" horiz-adv-x="577" 
d="M367 0h-156v1458h156v-1458zM520 1913l-221 -314h-135l180 314h176z" />
    <glyph glyph-name="Icircumflex" unicode="&#xeb;" horiz-adv-x="577" 
d="M367 0h-156v1458h156v-1458zM612 1599h-141l-184 213l-185 -213h-141l256 314h139z" />
    <glyph glyph-name="Idieresis" unicode="&#xec;" horiz-adv-x="577" 
d="M367 0h-156v1458h156v-1458zM145 1616h-147v182h147v-182zM580 1616h-148v182h148v-182z" />
    <glyph glyph-name="Igrave" unicode="&#xed;" horiz-adv-x="577" 
d="M367 0h-156v1458h156v-1458zM422 1599h-135l-221 314h176z" />
    <glyph glyph-name="Oacute" unicode="&#xee;" horiz-adv-x="1331" 
d="M328 1057q-17 -94 -17 -331q-1 -238 13 -309t34 -111q51 -103 169 -151q67 -28 139 -28q150 0 252 104q66 65 84 161t18 274t-4 296t-43 190q-51 103 -178 156t-268 -4q-167 -70 -199 -247zM156 653q0 193 2 280q4 179 56 279q28 55 79 107q152 151 373 151t372 -151
q94 -94 116 -210t22 -384t-16 -346q-29 -145 -112 -229q-160 -162 -382 -162q-221 0 -373 151q-94 94 -120 231q-17 90 -17 283zM922 1913l-222 -314h-135l180 314h177z" />
    <glyph glyph-name="Ocircumflex" unicode="&#xef;" horiz-adv-x="1331" 
d="M328 1057q-17 -94 -17 -331q-1 -238 13 -309t34 -111q51 -103 169 -151q67 -28 139 -28q150 0 252 104q66 65 84 161t18 274t-4 296t-43 190q-51 103 -178 156t-268 -4q-167 -70 -199 -247zM156 653q0 193 2 280q4 179 56 279q28 55 79 107q152 151 373 151t372 -151
q94 -94 116 -210t22 -384t-16 -346q-29 -145 -112 -229q-160 -162 -382 -162q-221 0 -373 151q-94 94 -120 231q-17 90 -17 283zM991 1599h-141l-184 213l-185 -213h-141l256 314h139z" />
    <glyph glyph-name="Ograve" unicode="&#xf1;" horiz-adv-x="1331" 
d="M328 1057q-17 -94 -17 -331q-1 -238 13 -309t34 -111q51 -103 169 -151q67 -28 139 -28q150 0 252 104q66 65 84 161t18 274t-4 296t-43 190q-51 103 -178 156t-268 -4q-167 -70 -199 -247zM156 653q0 193 2 280q4 179 56 279q28 55 79 107q152 151 373 151t372 -151
q94 -94 116 -210t22 -384t-16 -346q-29 -145 -112 -229q-160 -162 -382 -162q-221 0 -373 151q-94 94 -120 231q-17 90 -17 283zM766 1599h-135l-221 314h176z" />
    <glyph glyph-name="Uacute" unicode="&#xf2;" horiz-adv-x="1396" 
d="M1208 481q0 -216 -144 -355q-144 -138 -365 -138q-222 0 -365 138q-144 138 -144 355v977h156v-964q0 -166 97 -267q98 -100 256 -100t256 100t98 267v964h155v-977zM954 1913l-221 -314h-135l180 314h176z" />
    <glyph glyph-name="Ucircumflex" unicode="&#xf3;" horiz-adv-x="1396" 
d="M1208 481q0 -216 -144 -355q-144 -138 -365 -138q-222 0 -365 138q-144 138 -144 355v977h156v-964q0 -166 97 -267q98 -100 256 -100t256 100t98 267v964h155v-977zM1024 1599h-141l-185 213l-184 -213h-141l256 314h139z" />
    <glyph glyph-name="Ugrave" unicode="&#xf4;" horiz-adv-x="1396" 
d="M1208 481q0 -216 -144 -355q-144 -138 -365 -138q-222 0 -365 138q-144 138 -144 355v977h156v-964q0 -166 97 -267q98 -100 256 -100t256 100t98 267v964h155v-977zM799 1599h-135l-222 314h176z" />
    <glyph glyph-name="dotlessi" unicode="&#xf5;" horiz-adv-x="518" 
d="M332 0h-148v1008h148v-1008z" />
    <glyph glyph-name="circumflex" unicode="&#xf6;" horiz-adv-x="1024" 
d="M838 1217h-142l-184 213l-184 -213h-142l256 313h140z" />
    <glyph glyph-name="tilde" unicode="&#xf7;" horiz-adv-x="1024" 
d="M719 1262.5q-45 -17.5 -97 -17.5t-128 47q-78 43 -102 43q-38 0 -62.5 -10t-71.5 -55l-76 73q93 93 134.5 99t80.5 6t98 -34q60 -34 85.5 -45t52.5 -11t53.5 10t71.5 55l76 -73q-70 -70 -115 -87.5z" />
    <glyph glyph-name="macron" unicode="&#xf8;" horiz-adv-x="1024" 
d="M821 1257h-618v117h618v-117z" />
    <glyph glyph-name="breve" unicode="&#xf9;" horiz-adv-x="1024" 
d="M512 1204q-313 0 -338 285h119q10 -80 69.5 -124t153.5 -44t152.5 44t68.5 124h113q-25 -285 -338 -285z" />
    <glyph glyph-name="dotaccent" unicode="&#xfa;" horiz-adv-x="1024" 
d="M594 1298h-164v152h164v-152z" />
    <glyph glyph-name="ring" unicode="&#xfb;" horiz-adv-x="1024" 
d="M653 1407q0 59 -41 99t-100 40t-100 -40t-41 -99t41 -100t100 -41t100 41t41 100zM754 1408q0 -50 -19.5 -95t-52.5 -78t-77 -52.5t-93 -19.5t-93 19.5t-77 52.5t-52.5 78t-19.5 94t19.5 93t52.5 77t77 52.5t93 19.5t93 -18.5t77 -51.5t52.5 -77t19.5 -94z" />
    <glyph glyph-name="cedilla" unicode="&#xfc;" horiz-adv-x="1024" 
d="M641 -137l-121 -305h-162l146 305h137z" />
    <glyph glyph-name="hungarumlaut" unicode="&#xfd;" horiz-adv-x="1024" 
d="M582 1530l-222 -313h-135l183 313h174zM915 1530l-223 -313h-133l182 313h174z" />
    <glyph glyph-name="ogonek" unicode="&#xfe;" horiz-adv-x="1024" 
d="M662 -442h-160l-121 305h135z" />
    <glyph glyph-name="caron" unicode="&#xff;" horiz-adv-x="1024" 
d="M838 1530l-256 -313h-140l-256 313h142l184 -215l184 215h142z" />
    <glyph glyph-name="aring" unicode="&#x152;" horiz-adv-x="1077" 
d="M756 465h-283q-225 0 -225 -178q0 -88 55 -130t149 -42t149 10t105 58t50 173v109zM756 672q0 221 -238 221q-118 0 -174 -26t-100 -89l-101 92q68 88 151 119t206 31q403 0 403 -336v-684h-147v96q-55 -55 -120 -81q-65 -27 -170 -27q-197 0 -278 83t-83 215
q-1 132 89 211t259 78h303v97zM657 1407q0 59 -41 99t-100 40t-100 -40t-41 -99t41 -100t100 -41t100 41t41 100zM758 1408q0 -101 -71 -172t-170 -72t-170 70t-72 171t70 171t171 73q49 0 93 -19q89 -36 129 -128q20 -44 20 -94z" />
    <glyph glyph-name="uacute" unicode="&#x153;" horiz-adv-x="1153" 
d="M174 365v643h148v-621q0 -135 66 -202t180 -67t183 68t68 201v621h148v-1008h-146v113q-110 -127 -280 -126q-171 1 -269 99t-98 279zM825 1530l-221 -313h-135l180 313h176z" />
    <glyph glyph-name="adieresis" unicode="&#x160;" horiz-adv-x="1077" 
d="M756 465h-283q-225 0 -225 -178q0 -88 55 -130t149 -42t149 10t105 58t50 173v109zM756 672q0 221 -238 221q-118 0 -174 -26t-100 -89l-101 92q68 88 151 119t206 31q403 0 403 -336v-684h-147v96q-55 -55 -120 -81q-65 -27 -170 -27q-197 0 -278 83t-83 215
q-1 132 89 211t259 78h303v97zM373 1233h-148v182h148v-182zM807 1233h-148v182h148v-182z" />
    <glyph glyph-name="odieresis" unicode="&#x161;" horiz-adv-x="1085" 
d="M807 504q0 43 -2 86q-8 162 -78 225q-73 74 -183 74t-183 -73t-80 -226q-2 -43 -2 -86q0 -111 17 -186t64 -125q74 -74 184 -74t182 72t79 227q2 43 2 86zM954 505q0 -59 -5 -115q-25 -278 -242 -372q-72 -30 -164 -30q-175 1 -289 114q-76 78 -100 182t-23 220
q0 117 24 220q24 102 88 168q125 128 300 128t293 -119t118 -396zM399 1233h-147v182h147v-182zM834 1233h-148v182h148v-182z" />
    <glyph glyph-name="udieresis" unicode="&#x178;" horiz-adv-x="1153" 
d="M174 365v643h148v-621q0 -135 66 -202t180 -67t183 68t68 201v621h148v-1008h-146v113q-110 -127 -280 -126q-171 1 -269 99t-98 279zM426 1233h-147v182h147v-182zM860 1233h-147v182h147v-182z" />
    <glyph glyph-name="Eacute" unicode="&#x192;" horiz-adv-x="1228" 
d="M1116 0h-905v1458h905v-139h-749v-514h639v-139h-639v-527h749v-139zM897 1913l-221 -314h-135l180 314h176z" />
    <glyph glyph-name="agrave" unicode="&#x2c6;" horiz-adv-x="1077" 
d="M756 465h-283q-225 0 -225 -178q0 -88 55 -130t149 -42t149 10t105 58t50 173v109zM756 672q0 221 -238 221q-118 0 -174 -26t-100 -89l-101 92q68 88 151 119t206 31q403 0 403 -336v-684h-147v96q-55 -55 -120 -81q-65 -27 -170 -27q-197 0 -278 83t-83 215
q-1 132 89 211t259 78h303v97zM616 1217h-135l-221 313h176z" />
    <glyph glyph-name="ograve" unicode="&#x2dc;" horiz-adv-x="1085" 
d="M807 504q0 43 -2 86q-8 162 -78 225q-73 74 -183 74t-183 -73t-80 -226q-2 -43 -2 -86q0 -111 17 -186t64 -125q74 -74 184 -74t182 72t79 227q2 43 2 86zM954 505q0 -59 -5 -115q-25 -278 -242 -372q-72 -30 -164 -30q-175 1 -289 114q-76 78 -100 182t-23 220
q0 117 24 220q24 102 88 168q125 128 300 128t293 -119t118 -396zM623 1217h-136l-221 313h176z" />
    <glyph glyph-name="ntilde" unicode="&#x2013;" horiz-adv-x="1150" 
d="M829 0v621q-1 135 -67 201t-180 67q-114 0 -183 -68q-68 -68 -67 -200v-621h-148v1008h148v-111q110 123 278 123t267 -98t100 -277v-645h-148zM545 1302q-57 33 -98 33q-40 0 -67 -21t-50 -44l-76 73q92 92 156 102q20 3 60 3t99 -34q57 -34 83 -46q26 -10 53 -10t53 10
t71 55l76 -73q-71 -70 -115 -87t-83 -17t-72 11q-33 12 -90 45z" />
    <glyph glyph-name="oacute" unicode="&#x2014;" horiz-adv-x="1085" 
d="M807 504q0 43 -2 86q-8 162 -78 225q-73 74 -183 74t-183 -73t-80 -226q-2 -43 -2 -86q0 -111 17 -186t64 -125q74 -74 184 -74t182 72t79 227q2 43 2 86zM954 505q0 -59 -5 -115q-25 -278 -242 -372q-72 -30 -164 -30q-175 1 -289 114q-76 78 -100 182t-23 220
q0 117 24 220q24 102 88 168q125 128 300 128t293 -119t118 -396zM799 1530l-221 -313h-136l181 313h176z" />
    <glyph glyph-name="edieresis" unicode="&#x2018;" horiz-adv-x="1085" 
d="M543 895q-79 0 -143 -41q-105 -68 -119 -225q-2 -23 -5 -54h533q-3 103 -32 171q-28 67 -91 108t-143 41zM276 465q0 -166 76 -257t221 -91q89 -1 147 27t118 87l100 -88q-81 -81 -141 -107q-108 -48 -218 -48q-324 0 -418 285q-32 97 -32 231q0 246 111 381
q112 135 306 135t302 -131t108 -357v-67h-680zM406 1233h-148v182h148v-182zM840 1233h-148v182h148v-182z" />
    <glyph glyph-name="iacute" unicode="&#x2019;" horiz-adv-x="518" 
d="M332 0h-148v1008h148v-1008zM494 1530l-222 -313h-135l180 313h177z" />
    <glyph glyph-name="Ccedilla" unicode="&#x201a;" horiz-adv-x="1304" 
d="M758 -225h-144v217q-191 17 -321 147q-94 94 -115.5 207t-21.5 306.5t4 365.5t123 291q161 161 370 161t345.5 -114t172.5 -320h-159q-29 135 -119 215t-236 80t-243 -102q-67 -67 -85 -163.5t-18 -336.5t18 -336.5t85 -163.5q98 -102 243 -102q146 0 238 80t121 215h155
q-31 -182 -141 -292t-272 -136v-219z" />
    <glyph glyph-name="igrave" unicode="&#x201c;" horiz-adv-x="518" 
d="M332 0h-148v1008h148v-1008zM395 1217h-135l-221 313h176z" />
    <glyph glyph-name="icircumflex" unicode="&#x201d;" horiz-adv-x="518" 
d="M332 0h-148v1008h148v-1008zM586 1217h-142l-184 213l-184 -213h-142l256 313h140z" />
    <glyph glyph-name="Ntilde" unicode="&#x201e;" horiz-adv-x="1499" 
d="M1288 0h-147l-774 1169v-1169h-156v1458h147l775 -1165v1165h155v-1458zM613 1831q46 0 77 -13t85 -45t88 -32t61 10t71 55l76 -73q-70 -70 -115 -87q-46 -18 -84 -18t-71 12t-90 45t-98 33q-40 0 -67 -21t-50 -44l-76 73q59 59 103 82t90 23z" />
    <glyph glyph-name="Udieresis" unicode="&#x2020;" horiz-adv-x="1396" 
d="M1208 481q0 -216 -144 -355q-144 -138 -365 -138q-222 0 -365 138q-144 138 -144 355v977h156v-964q0 -166 97 -267q98 -100 256 -100t256 100t98 267v964h155v-977zM555 1616h-147v182h147v-182zM989 1616h-147v182h147v-182z" />
    <glyph glyph-name="aacute" unicode="&#x2021;" horiz-adv-x="1077" 
d="M756 465h-283q-225 0 -225 -178q0 -88 55 -130t149 -42t149 10t105 58t50 173v109zM756 672q0 221 -238 221q-118 0 -174 -26t-100 -89l-101 92q68 88 151 119t206 31q403 0 403 -336v-684h-147v96q-55 -55 -120 -81q-65 -27 -170 -27q-197 0 -278 83t-83 215
q-1 132 89 211t259 78h303v97zM772 1530l-221 -313h-135l180 313h176z" />
    <glyph glyph-name="idieresis" unicode="&#x2022;" horiz-adv-x="518" 
d="M332 0h-148v1008h148v-1008zM113 1233h-148v182h148v-182zM547 1233h-148v182h148v-182z" />
    <glyph glyph-name="Odieresis" unicode="&#x2026;" horiz-adv-x="1331" 
d="M328 1057q-17 -94 -17 -331q-1 -238 13 -309t34 -111q51 -103 169 -151q67 -28 139 -28q150 0 252 104q66 65 84 161t18 274t-4 296t-43 190q-51 103 -178 156t-268 -4q-167 -70 -199 -247zM156 653q0 193 2 280q4 179 56 279q28 55 79 107q152 151 373 151t372 -151
q94 -94 116 -210t22 -384t-16 -346q-29 -145 -112 -229q-160 -162 -382 -162q-221 0 -373 151q-94 94 -120 231q-17 90 -17 283zM522 1616h-147v182h147v-182zM956 1616h-147v182h147v-182z" />
    <glyph glyph-name="acircumflex" unicode="&#x2030;" horiz-adv-x="1077" 
d="M756 465h-283q-225 0 -225 -178q0 -88 55 -130t149 -42t149 10t105 58t50 173v109zM756 672q0 221 -238 221q-118 0 -174 -26t-100 -89l-101 92q68 88 151 119t206 31q403 0 403 -336v-684h-147v96q-55 -55 -120 -81q-65 -27 -170 -27q-197 0 -278 83t-83 215
q-1 132 89 211t259 78h303v97zM842 1217h-142l-184 213l-184 -213h-142l256 313h140z" />
    <glyph glyph-name="atilde" unicode="&#x2039;" horiz-adv-x="1077" 
d="M756 465h-283q-225 0 -225 -178q0 -88 55 -130t149 -42t149 10t105 58t50 173v109zM756 672q0 221 -238 221q-118 0 -174 -26t-100 -89l-101 92q68 88 151 119t206 31q403 0 403 -336v-684h-147v96q-55 -55 -120 -81q-65 -27 -170 -27q-197 0 -278 83t-83 215
q-1 132 89 211t259 78h303v97zM380 1448q46 0 77 -13t84 -45t88 -32t61 10t72 55l76 -73q-70 -70 -115 -87t-98 -18t-127 47q-78 43 -124 43q-47 0 -112 -65l-76 73q105 105 194 105z" />
    <glyph glyph-name="otilde" unicode="&#x203a;" horiz-adv-x="1085" 
d="M807 504q0 43 -2 86q-8 162 -78 225q-73 74 -183 74t-183 -73t-80 -226q-2 -43 -2 -86q0 -111 17 -186t64 -125q74 -74 184 -74t182 72t79 227q2 43 2 86zM954 505q0 -59 -5 -115q-25 -278 -242 -372q-72 -30 -164 -30q-175 1 -289 114q-76 78 -100 182t-23 220
q0 117 24 220q24 102 88 168q125 128 300 128t293 -119t118 -396zM504 1302q-57 33 -98 33q-40 0 -67 -21t-50 -44l-76 73q92 92 156 102q20 3 60 3t99 -34q58 -34 84 -46q26 -10 52 -10q28 0 54 10t70 55l76 -73q-70 -70 -114 -87t-84 -17q-39 0 -72 11q-33 12 -90 45z" />
    <glyph glyph-name="Adieresis" unicode="&#x20ac;" horiz-adv-x="1251" 
d="M899 465l-270 770l-275 -770h545zM1227 0h-166l-117 330h-637l-117 -330h-165l536 1458h131zM475 1616h-147v182h147v-182zM909 1616h-147v182h147v-182z" />
    <glyph glyph-name="ocircumflex" unicode="&#x2122;" horiz-adv-x="1085" 
d="M807 504q0 43 -2 86q-8 162 -78 225q-73 74 -183 74t-183 -73t-80 -226q-2 -43 -2 -86q0 -111 17 -186t64 -125q74 -74 184 -74t182 72t79 227q2 43 2 86zM954 505q0 -59 -5 -115q-25 -278 -242 -372q-72 -30 -164 -30q-175 1 -289 114q-76 78 -100 182t-23 220
q0 117 24 220q24 102 88 168q125 128 300 128t293 -119t118 -396zM868 1217h-141l-184 213l-185 -213h-141l256 313h139z" />
  </font>
</defs>
</svg>
